HIERARCHY
ROOT reference
{
  OFFSET 0 0 0
  CHANNELS 6 Xposition Yposition Zposition Zrotation Xrotation Yrotation
  JOINT Hips
  {
    OFFSET 28.3587 88.7801 -18.639
    CHANNELS 6 Xposition Yposition Zposition Zrotation Xrotation Yrotation
    JOINT RightUpLeg
    {
      OFFSET -10.0051 -1.61895 0.0117241
      CHANNELS 6 Xposition Yposition Zposition Zrotation Xrotation Yrotation
      JOINT RightLeg
      {
        OFFSET 0.0614837 -38.38 0.0511171
        CHANNELS 6 Xposition Yposition Zposition Zrotation Xrotation Yrotation
        JOINT RightFoot
        {
          OFFSET 0.0948713 -38.16 0.619621
          CHANNELS 6 Xposition Yposition Zposition Zrotation Xrotation Yrotation
          End Site
          {
            OFFSET 0 -8 17.85
          }
        }
      }
    }
    JOINT LeftUpLeg
    {
      OFFSET 9.97755 -1.62837 0.0626144
      CHANNELS 6 Xposition Yposition Zposition Zrotation Xrotation Yrotation
      JOINT LeftLeg
      {
        OFFSET -0.0251408 -40.0033 0.0873356
        CHANNELS 6 Xposition Yposition Zposition Zrotation Xrotation Yrotation
        JOINT LeftFoot
        {
          OFFSET -0.232609 -37.8237 -0.200824
          CHANNELS 6 Xposition Yposition Zposition Zrotation Xrotation Yrotation
          End Site
          {
            OFFSET 0 -8 17.85
          }
        }
      }
    }
    JOINT Spine
    {
      OFFSET 0.0146971 16.23 0.0298895
      CHANNELS 6 Xposition Yposition Zposition Zrotation Xrotation Yrotation
      JOINT Spine1
      {
        OFFSET 0.00460961 9.92001 0.0176009
        CHANNELS 6 Xposition Yposition Zposition Zrotation Xrotation Yrotation
        JOINT Spine2
        {
          OFFSET 0.00751003 10.33 0.0100602
          CHANNELS 6 Xposition Yposition Zposition Zrotation Xrotation Yrotation
          JOINT Spine3
          {
            OFFSET 0.00765088 9.92 0.00605236
            CHANNELS 6 Xposition Yposition Zposition Zrotation Xrotation Yrotation
            JOINT Neck
            {
              OFFSET 0.0316523 10.5933 0.112077
              CHANNELS 6 Xposition Yposition Zposition Zrotation Xrotation Yrotation
              JOINT Head
              {
                OFFSET -0.0205997 12.5167 0.136747
                CHANNELS 6 Xposition Yposition Zposition Zrotation Xrotation Yrotation
                End Site
                {
                  OFFSET 0 16.5 0
                }
              }
            }
            JOINT RightShoulder
            {
              OFFSET -3.4196 7.05993 0.0646645
              CHANNELS 6 Xposition Yposition Zposition Zrotation Xrotation Yrotation
              JOINT RightArm
              {
                OFFSET -13.5941 -0.00774677 0.0407273
                CHANNELS 6 Xposition Yposition Zposition Zrotation Xrotation Yrotation
                JOINT RightForeArm
                {
                  OFFSET -24.5195 -0.107943 0.00753312
                  CHANNELS 6 Xposition Yposition Zposition Zrotation Xrotation Yrotation
                  JOINT RightHand
                  {
                    OFFSET -25.49 -0.0668619 0.0413232
                    CHANNELS 6 Xposition Yposition Zposition Zrotation Xrotation Yrotation
                    JOINT RightHandThumb1
                    {
                      OFFSET -2.7 0.21 3.39
                      CHANNELS 6 Xposition Yposition Zposition Zrotation Xrotation Yrotation
                      JOINT RightHandThumb2
                      {
                        OFFSET -4 0 0
                        CHANNELS 6 Xposition Yposition Zposition Zrotation Xrotation Yrotation
                        JOINT RightHandThumb3
                        {
                          OFFSET -2.78 0 0
                          CHANNELS 6 Xposition Yposition Zposition Zrotation Xrotation Yrotation
                          End Site
                          {
                            OFFSET -2.382 0 0
                          }
                        }
                      }
                    }
                    JOINT RightInHandIndex
                    {
                      OFFSET -3.5 0.55 2.15
                      CHANNELS 6 Xposition Yposition Zposition Zrotation Xrotation Yrotation
                      JOINT RightHandIndex1
                      {
                        OFFSET -5.66 -0.1 1.08
                        CHANNELS 6 Xposition Yposition Zposition Zrotation Xrotation Yrotation
                        JOINT RightHandIndex2
                        {
                          OFFSET -3.93 0 0
                          CHANNELS 6 Xposition Yposition Zposition Zrotation Xrotation Yrotation
                          JOINT RightHandIndex3
                          {
                            OFFSET -2.23 0 0
                            CHANNELS 6 Xposition Yposition Zposition Zrotation Xrotation Yrotation
                            End Site
                            {
                              OFFSET -1.96 0 0
                            }
                          }
                        }
                      }
                    }
                    JOINT RightInHandMiddle
                    {
                      OFFSET -3.67 0.56 0.82
                      CHANNELS 6 Xposition Yposition Zposition Zrotation Xrotation Yrotation
                      JOINT RightHandMiddle1
                      {
                        OFFSET -5.62 -0.09 0.34
                        CHANNELS 6 Xposition Yposition Zposition Zrotation Xrotation Yrotation
                        JOINT RightHandMiddle2
                        {
                          OFFSET -4.29 0 0
                          CHANNELS 6 Xposition Yposition Zposition Zrotation Xrotation Yrotation
                          JOINT RightHandMiddle3
                          {
                            OFFSET -2.69 0 0
                            CHANNELS 6 Xposition Yposition Zposition Zrotation Xrotation Yrotation
                            End Site
                            {
                              OFFSET -2.144 0 0
                            }
                          }
                        }
                      }
                    }
                    JOINT RightInHandRing
                    {
                      OFFSET -3.65 0.58 -0.14
                      CHANNELS 6 Xposition Yposition Zposition Zrotation Xrotation Yrotation
                      JOINT RightHandRing1
                      {
                        OFFSET -5.03 -0.02 -0.52
                        CHANNELS 6 Xposition Yposition Zposition Zrotation Xrotation Yrotation
                        JOINT RightHandRing2
                        {
                          OFFSET -3.74 0 0
                          CHANNELS 6 Xposition Yposition Zposition Zrotation Xrotation Yrotation
                          JOINT RightHandRing3
                          {
                            OFFSET -2.59 0 0
                            CHANNELS 6 Xposition Yposition Zposition Zrotation Xrotation Yrotation
                            End Site
                            {
                              OFFSET -2.016 0 0
                            }
                          }
                        }
                      }
                    }
                    JOINT RightInHandPinky
                    {
                      OFFSET -3.43 0.51 -1.3
                      CHANNELS 6 Xposition Yposition Zposition Zrotation Xrotation Yrotation
                      JOINT RightHandPinky1
                      {
                        OFFSET -4.5 -0.02 -1.18
                        CHANNELS 6 Xposition Yposition Zposition Zrotation Xrotation Yrotation
                        JOINT RightHandPinky2
                        {
                          OFFSET -2.99 0 0
                          CHANNELS 6 Xposition Yposition Zposition Zrotation Xrotation Yrotation
                          JOINT RightHandPinky3
                          {
                            OFFSET -1.89 0 0
                            CHANNELS 6 Xposition Yposition Zposition Zrotation Xrotation Yrotation
                            End Site
                            {
                              OFFSET -1.786 0 0
                            }
                          }
                        }
                      }
                    }
                  }
                }
              }
            }
            JOINT LeftShoulder
            {
              OFFSET 3.39166 7.0672 -0.00873036
              CHANNELS 6 Xposition Yposition Zposition Zrotation Xrotation Yrotation
              JOINT LeftArm
              {
                OFFSET 13.5663 -0.0165596 -0.0170592
                CHANNELS 6 Xposition Yposition Zposition Zrotation Xrotation Yrotation
                JOINT LeftForeArm
                {
                  OFFSET 24.5292 0.0210254 -0.012368
                  CHANNELS 6 Xposition Yposition Zposition Zrotation Xrotation Yrotation
                  JOINT LeftHand
                  {
                    OFFSET 25.48 0.00127207 -0.117709
                    CHANNELS 6 Xposition Yposition Zposition Zrotation Xrotation Yrotation
                    JOINT LeftHandThumb1
                    {
                      OFFSET 2.7 0.21 3.39
                      CHANNELS 6 Xposition Yposition Zposition Zrotation Xrotation Yrotation
                      JOINT LeftHandThumb2
                      {
                        OFFSET 4 0 0
                        CHANNELS 6 Xposition Yposition Zposition Zrotation Xrotation Yrotation
                        JOINT LeftHandThumb3
                        {
                          OFFSET 2.78 0 0
                          CHANNELS 6 Xposition Yposition Zposition Zrotation Xrotation Yrotation
                          End Site
                          {
                            OFFSET 2.382 0 0
                          }
                        }
                      }
                    }
                    JOINT LeftInHandIndex
                    {
                      OFFSET 3.5 0.55 2.15
                      CHANNELS 6 Xposition Yposition Zposition Zrotation Xrotation Yrotation
                      JOINT LeftHandIndex1
                      {
                        OFFSET 5.66 -0.1 1.08
                        CHANNELS 6 Xposition Yposition Zposition Zrotation Xrotation Yrotation
                        JOINT LeftHandIndex2
                        {
                          OFFSET 3.93 0 0
                          CHANNELS 6 Xposition Yposition Zposition Zrotation Xrotation Yrotation
                          JOINT LeftHandIndex3
                          {
                            OFFSET 2.23 0 0
                            CHANNELS 6 Xposition Yposition Zposition Zrotation Xrotation Yrotation
                            End Site
                            {
                              OFFSET 1.96 0 0
                            }
                          }
                        }
                      }
                    }
                    JOINT LeftInHandMiddle
                    {
                      OFFSET 3.67 0.56 0.82
                      CHANNELS 6 Xposition Yposition Zposition Zrotation Xrotation Yrotation
                      JOINT LeftHandMiddle1
                      {
                        OFFSET 5.62 -0.09 0.34
                        CHANNELS 6 Xposition Yposition Zposition Zrotation Xrotation Yrotation
                        JOINT LeftHandMiddle2
                        {
                          OFFSET 4.29 0 0
                          CHANNELS 6 Xposition Yposition Zposition Zrotation Xrotation Yrotation
                          JOINT LeftHandMiddle3
                          {
                            OFFSET 2.69 0 0
                            CHANNELS 6 Xposition Yposition Zposition Zrotation Xrotation Yrotation
                            End Site
                            {
                              OFFSET 2.144 0 0
                            }
                          }
                        }
                      }
                    }
                    JOINT LeftInHandRing
                    {
                      OFFSET 3.65 0.58 -0.14
                      CHANNELS 6 Xposition Yposition Zposition Zrotation Xrotation Yrotation
                      JOINT LeftHandRing1
                      {
                        OFFSET 5.03 -0.02 -0.52
                        CHANNELS 6 Xposition Yposition Zposition Zrotation Xrotation Yrotation
                        JOINT LeftHandRing2
                        {
                          OFFSET 3.74 0 0
                          CHANNELS 6 Xposition Yposition Zposition Zrotation Xrotation Yrotation
                          JOINT LeftHandRing3
                          {
                            OFFSET 2.59 0 0
                            CHANNELS 6 Xposition Yposition Zposition Zrotation Xrotation Yrotation
                            End Site
                            {
                              OFFSET 2.016 0 0
                            }
                          }
                        }
                      }
                    }
                    JOINT LeftInHandPinky
                    {
                      OFFSET 3.43 0.51 -1.3
                      CHANNELS 6 Xposition Yposition Zposition Zrotation Xrotation Yrotation
                      JOINT LeftHandPinky1
                      {
                        OFFSET 4.5 -0.02 -1.18
                        CHANNELS 6 Xposition Yposition Zposition Zrotation Xrotation Yrotation
                        JOINT LeftHandPinky2
                        {
                          OFFSET 2.99 0 0
                          CHANNELS 6 Xposition Yposition Zposition Zrotation Xrotation Yrotation
                          JOINT LeftHandPinky3
                          {
                            OFFSET 1.89 0 0
                            CHANNELS 6 Xposition Yposition Zposition Zrotation Xrotation Yrotation
                            End Site
                            {
                              OFFSET 1.786 0 0
                            }
                          }
                        }
                      }
                    }
                  }
                }
              }
            }
          }
        }
      }
    }
  }
}
MOTION
Frames:	3
Frame Time:	0.0166667
0 0 0 0 0 -0 28.2476 88.7616 -19.1249 -1.16478 1.25154 13.1721 -10.0181 -1.61491 -0.00457966 3.52156 -1.21339 -29.1119 0.0197122 -38.38 0.0198217 -6.18542 -3.26594 0.650023 0.707248 -38.1373 0.459094 3.05843 2.03511 20.6158 9.9546 -1.62457 0.0249015 -3.12408 -1.92795 -10.9967 -0.0507358 -40.0071 0.0510238 5.36525 3.05591 20.7724 -0.279681 -37.7789 -0.44322 0.604266 -0.603872 4.80287 0.0376419 16.23 -0.0091931 0.73875 4.56937 -10.738 0.0103835 9.91999 -0.00247815 0.103181 1.16547 -2.69247 0.010525 10.33 0.0422796 0.206746 1.92715 -4.43606 0.0191492 9.92 0.0105708 0.313351 0.82312 0.545335 0.023551 10.6147 -0.0117504 0.313206 0.82318 0.555452 -0.00384207 12.4925 -0.0135165 4.52546 14.9034 10.6164 -3.39559 7.05264 0.0117752 9.46311 -1.25379 -11.0345 -13.6126 -0.0139219 -0.00047842 69.904 21.0267 16.3407 -24.4566 -0.0377382 0.0231588 -48.9125 50.3929 61.4395 -25.4411 0.056871 -0.0839644 -6.529 9.00736 -12.922 -2.7 0.21 3.39 11.7924 15.986 52.8354 -4 0 0 -8.11079 1.37793 -9.5775 -2.78 7.10543e-015 0 -7.50052e-015 -3.18055e-015 -44.0418 -3.5 0.55 2.15 -6.36111e-015 -1.59028e-015 -1.59028e-015 -5.66 -0.1 1.08 19.6963 5.16032 14.1037 -3.93 7.10543e-015 0 41.4632 1.98785e-016 -2.08724e-015 -2.23 -3.55271e-015 3.55271e-015 20.7323 -1.19271e-015 1.19271e-015 -3.67 0.56 0.82 -6.36111e-015 -1.59028e-015 -1.59028e-015 -5.62 -0.09 0.34 27.5716 0 -7.95139e-016 -4.29 3.55271e-015 -6.66134e-016 27.5716 0 -6.36111e-015 -2.69 0 1.55431e-015 27.5716 3.18055e-015 -6.36111e-015 -3.65 0.58 -0.14 -6.36111e-015 -1.59028e-015 -1.59028e-015 -5.03 -0.02 -0.52 13.6666 -3.6225 -14.5658 -3.74 0 -3.55271e-015 14.1297 0 5.56597e-015 -2.59 -7.10543e-015 0 14.1297 3.18055e-015 5.1684e-015 -3.43 0.51 -1.3 -6.36111e-015 -1.59028e-015 -1.59028e-015 -4.5 -0.02 -1.18 15.7246 -7.2026 -24.004 -2.99 7.10543e-015 -3.55271e-015 17.2578 3.18055e-015 -8.69683e-015 -1.89 -3.55271e-015 0 17.2578 -3.18055e-015 -2.38542e-015 3.40454 7.07395 -0.000548251 -1.07896 1.35608 0.848299 13.5993 -0.0111418 -0.0503276 -64.5474 15.2203 -13.7751 24.472 0.0157866 -0.0306479 69.0534 28.1474 -79.8607 25.4711 0.0120338 -0.105565 1.73796 -2.30706 5.41659 2.7 0.21 3.39 -69.4233 14.2139 -5.26668 4 0 7.10543e-015 -22.6284 -23.9734 44.267 2.78 0 0 6.3983e-015 0 -6.18066 3.5 0.55 2.15 -9.54166e-015 -2.38542e-015 7.95139e-016 5.66 -0.1 1.08 -45.9449 10.8999 -10.368 3.93 7.10543e-015 -7.10543e-015 -93.8715 -1.39149e-014 1.27222e-014 2.23 1.42109e-014 0 -46.9368 2.06736e-014 -3.18055e-014 3.67 0.56 0.82 -9.54166e-015 -2.38542e-015 7.95139e-016 5.62 -0.09 0.34 -50.6798 0 -1.39149e-015 4.29 -3.55271e-015 -1.42109e-014 -50.6798 -3.97569e-015 1.27222e-014 2.69 -7.10543e-015 7.10543e-015 -50.6798 -3.77691e-015 2.70347e-014 3.65 0.58 -0.14 -9.54166e-015 -2.38542e-015 7.95139e-016 5.03 -0.02 -0.52 -61.032 -13.1964 7.20245 3.74 0 0 -61.8666 -2.38542e-015 1.51076e-014 2.59 -1.42109e-014 0 -61.8666 -2.3059e-014 3.73715e-014 3.43 0.51 -1.3 -9.54166e-015 -2.38542e-015 7.95139e-016 4.5 -0.02 -1.18 -39.6971 -16.5859 18.9762 2.99 7.10543e-015 0 -42.4881 6.36111e-015 1.59028e-015 1.89 0 0 -42.4881 -2.38542e-015 1.27222e-014 
0 0 0 0 0 -0 28.2408 88.7613 -19.127 -1.16491 1.28045 13.1753 -10.016 -1.61327 -0.00969383 3.51433 -1.24909 -29.1121 0.018776 -38.38 0.0192429 -6.17638 -3.28471 0.641065 0.700757 -38.1384 0.445713 3.05588 2.06174 20.69 9.95477 -1.62525 0.0304703 -3.1363 -1.95031 -11.0339 -0.049958 -40.0064 0.0513553 5.38332 3.02888 20.8105 -0.279091 -37.7782 -0.448815 0.574709 -0.570993 4.82386 0.0392642 16.23 -0.00301768 0.772584 4.59212 -10.7032 0.0110291 9.91999 -0.00127904 0.113485 1.16608 -2.68373 0.0116376 10.33 0.0408495 0.219368 1.93778 -4.41761 0.0187069 9.92 0.0107383 0.312017 0.82313 0.544859 0.024619 10.6146 -0.0135441 0.311873 0.823186 0.55486 -0.00110032 12.492 -0.0183843 4.47073 14.8994 10.6434 -3.39492 7.05125 0.0114841 9.44765 -1.42445 -10.916 -13.6108 -0.0177445 -0.000615781 70.0579 21.4705 16.3482 -24.4662 -0.0469977 0.0211467 -48.2555 51.4151 59.9462 -25.4451 0.0528701 -0.0704744 -6.32342 9.18667 -12.8079 -2.7 0.21 3.39 11.2848 15.3903 53.0614 -4 0 0 -8.86701 1.47698 -9.38187 -2.78 0 -7.10543e-015 -1.60406e-014 -3.18055e-015 -43.0888 -3.5 0.55 2.15 -6.36111e-015 0 -7.95139e-016 -5.66 -0.1 1.08 19.183 5.03161 14.1492 -3.93 0 0 40.9554 3.37934e-015 -6.95746e-015 -2.23 3.55271e-015 0 20.4773 -1.68967e-015 -6.95746e-016 -3.67 0.56 0.82 -6.36111e-015 0 -7.95139e-016 -5.62 -0.09 0.34 26.879 -3.18055e-015 -4.77083e-015 -4.29 3.55271e-015 -2.22045e-016 26.879 -1.59028e-015 -2.38542e-015 -2.69 -3.55271e-015 7.77156e-016 26.879 -1.59028e-015 -7.95139e-016 -3.65 0.58 -0.14 -6.36111e-015 0 -7.95139e-016 -5.03 -0.02 -0.52 13.2536 -3.51529 -14.5915 -3.74 7.10543e-015 -3.55271e-015 13.7038 -6.36111e-015 -3.57812e-015 -2.59 3.55271e-015 3.55271e-015 13.7038 -3.18055e-015 -1.98785e-016 -3.43 0.51 -1.3 -6.36111e-015 0 -7.95139e-016 -4.5 -0.02 -1.18 15.5302 -7.11667 -24.0284 -2.99 7.10543e-015 0 17.0466 -3.18055e-015 1.19271e-015 -1.89 3.55271e-015 7.10543e-015 17.0466 -3.18055e-015 -0 3.40547 7.07319 -0.00107494 -1.09498 1.24906 0.791079 13.5981 -0.0115459 -0.0441723 -64.5405 17.5644 -13.4479 24.4706 0.0160064 -0.0242405 68.8968 27.8201 -78.5423 25.4723 0.00911266 -0.105709 2.43423 -2.26581 5.51147 2.7 0.21 3.39 -69.7068 14.5221 -5.29757 4 0 -7.10543e-015 -23.1224 -23.9526 43.5545 2.78 0 0 -3.19849e-015 0 -6.07001 3.5 0.55 2.15 -3.18055e-015 -2.38542e-015 1.59028e-015 5.66 -0.1 1.08 -46.1782 10.9417 -10.3238 3.93 0 -7.10543e-015 -94.3487 -5.1684e-015 3.18055e-015 2.23 1.42109e-014 0 -47.1696 2.06736e-014 -4.45278e-014 3.67 0.56 0.82 -3.18055e-015 -2.38542e-015 1.59028e-015 5.62 -0.09 0.34 -50.9108 -7.95139e-015 1.92821e-014 4.29 0 7.10543e-015 -50.9108 7.15625e-015 1.82882e-014 2.69 7.10543e-015 0 -50.9108 -9.29318e-015 1.11319e-014 3.65 0.58 -0.14 -3.18055e-015 -2.38542e-015 1.59028e-015 5.03 -0.02 -0.52 -61.0471 -13.1954 7.19795 3.74 3.55271e-015 -1.42109e-014 -61.8808 -6.36111e-015 2.54444e-014 2.59 1.42109e-014 1.42109e-014 -61.8808 -1.39149e-014 2.90226e-014 3.43 0.51 -1.3 -3.18055e-015 -2.38542e-015 1.59028e-015 4.5 -0.02 -1.18 -39.8495 -16.636 18.9327 2.99 7.10543e-015 0 -42.6425 4.77083e-015 7.95139e-015 1.89 3.55271e-015 0 -42.6425 -9.54166e-015 7.95139e-015 
0 0 0 0 0 -0 28.2332 88.7613 -19.1301 -1.16063 1.34461 13.1677 -10.0143 -1.61012 -0.0137132 3.49917 -1.31365 -29.1097 0.0169479 -38.38 0.0188152 -6.1578 -3.30232 0.630041 0.697187 -38.1396 0.434073 3.06043 2.09082 20.7758 9.95587 -1.62587 0.0349138 -3.16098 -2.00605 -11.0967 -0.0493469 -40.0055 0.0517857 5.40509 3.00523 20.8619 -0.278206 -37.7782 -0.45092 0.558233 -0.546694 4.81522 0.0395847 16.23 0.0046169 0.771844 4.60714 -10.6893 0.0121202 9.91999 -7.56268e-005 0.115291 1.16603 -2.67315 0.0127986 10.33 0.0398465 0.212242 1.94023 -4.41498 0.0181407 9.92 0.010983 0.311384 0.823143 0.553958 0.0247971 10.6145 -0.0148074 0.31124 0.823193 0.563959 -0.000198895 12.4905 -0.0200534 4.49002 14.9036 10.6976 -3.39433 7.04985 0.0113337 9.45611 -1.56307 -10.8662 -13.6096 -0.0225671 0.000578835 70.1176 21.9312 16.4792 -24.47 -0.0559604 0.0149221 -47.3048 52.309 58.2823 -25.4479 0.0457456 -0.0581294 -6.16188 9.35647 -12.7148 -2.7 0.21 3.39 10.8459 14.8779 53.2703 -4 0 0 -9.52561 1.55209 -9.16955 -2.78 0 0 -2.29957e-014 -6.36111e-015 -42.3142 -3.5 0.55 2.15 3.18055e-015 -3.18055e-015 7.95139e-016 -5.66 -0.1 1.08 18.5707 4.87751 14.202 -3.93 0 0 40.4746 -1.09332e-015 7.20594e-015 -2.23 -3.55271e-015 3.55271e-015 20.2415 1.2921e-015 3.47873e-015 -3.67 0.56 0.82 3.18055e-015 -3.18055e-015 7.95139e-016 -5.62 -0.09 0.34 26.2038 -3.18055e-015 1.59028e-015 -4.29 0 2.22045e-016 26.2038 3.18055e-015 6.75868e-015 -2.69 0 -4.44089e-016 26.2038 1.59028e-015 2.38542e-015 -3.65 0.58 -0.14 3.18055e-015 -3.18055e-015 7.95139e-016 -5.03 -0.02 -0.52 12.8044 -3.39846 -14.6186 -3.74 0 3.55271e-015 13.2405 -3.18055e-015 3.97569e-015 -2.59 0 0 13.2405 3.18055e-015 9.14409e-015 -3.43 0.51 -1.3 3.18055e-015 -3.18055e-015 7.95139e-016 -4.5 -0.02 -1.18 15.3317 -7.02879 -24.0528 -2.99 -7.10543e-015 -7.10543e-015 16.8309 0 4.77083e-015 -1.89 0 1.42109e-014 16.8309 6.36111e-015 -2.38542e-015 3.40575 7.07282 -0.00150616 -1.09113 1.17683 0.758697 13.5974 -0.0111032 -0.0384023 -64.4842 18.6633 -13.2944 24.4699 0.0168307 -0.0191958 69.1452 28.0688 -78.5012 25.4735 0.00534015 -0.104444 3.03594 -2.10171 5.62066 2.7 0.21 3.39 -69.9804 15.081 -5.41545 4 0 -7.10543e-015 -23.8348 -23.7189 42.3188 2.78 0 1.42109e-014 -7.34885e-015 -9.54166e-015 -5.72089 3.5 0.55 2.15 -3.18055e-015 2.38542e-015 -1.59028e-015 5.66 -0.1 1.08 -46.283 10.9605 -10.3039 3.93 0 0 -94.5506 2.50469e-014 9.54166e-015 2.23 1.42109e-014 0 -47.2742 0 -3.18055e-015 3.67 0.56 0.82 -3.18055e-015 2.38542e-015 -1.59028e-015 5.62 -0.09 0.34 -51.1822 9.54166e-015 3.57812e-015 4.29 0 -7.10543e-015 -51.1822 1.59028e-015 -3.97569e-015 2.69 0 0 -51.1822 3.77691e-015 -6.36111e-015 3.65 0.58 -0.14 -3.18055e-015 2.38542e-015 -1.59028e-015 5.03 -0.02 -0.52 -61.0246 -13.1925 7.20268 3.74 -3.55271e-015 0 -61.8586 1.19271e-015 -5.1684e-015 2.59 0 1.42109e-014 -61.8586 2.38542e-015 -1.19271e-014 3.43 0.51 -1.3 -3.18055e-015 2.38542e-015 -1.59028e-015 4.5 -0.02 -1.18 -40.0975 -16.7173 18.8615 2.99 0 1.42109e-014 -42.8936 -1.11319e-014 1.11319e-014 1.89 7.10543e-015 0 -42.8936 1.59028e-015 -1.11319e-014 
